<svg xmlns="http://www.w3.org/2000/svg" viewBox="0 0 960 520" width="960" height="520" font-family="'Noto Sans JP',sans-serif">
  <defs>
    <marker id="af" markerUnits="userSpaceOnUse" markerWidth="11" markerHeight="8" refX="10" refY="4" orient="auto">
      <path d="M0,0 L10,4 L0,8 Z" fill="#00755c"/>
    </marker>
    <marker id="ax" markerUnits="userSpaceOnUse" markerWidth="11" markerHeight="8" refX="10" refY="4" orient="auto">
      <path d="M0,0 L10,4 L0,8 Z" fill="#9aa0a6"/>
    </marker>
  </defs>
  <rect x="0" y="0" width="960" height="520" fill="#ffffff"/>
  <text x="480" y="34" text-anchor="middle" font-size="16" font-weight="700" fill="#333333">処理フロー（雛形）</text>
  <rect x="390" y="56" width="180" height="42" rx="21.0" fill="#ffffff" stroke="#cdeae0" stroke-width="1.4"/>
  <text x="480" y="82" text-anchor="middle" font-size="13" font-weight="700" fill="#333333">開始</text>
  <rect x="380" y="124" width="200" height="54" rx="10" fill="#ffffff" stroke="#cdeae0" stroke-width="1.4"/>
  <text x="480" y="148" text-anchor="middle" font-size="13" font-weight="700" fill="#333333">入力受付</text>
  <text x="480" y="167" text-anchor="middle" font-size="11" fill="#6b7280">{{入力}}</text>
  <polygon points="480,198 585,246 480,294 375,246" fill="#ffffff" stroke="#cdeae0" stroke-width="1.4"/>
  <text x="480" y="251" text-anchor="middle" font-size="13" font-weight="700" fill="#333333">バリデーション</text>
  <rect x="380" y="324" width="200" height="54" rx="10" fill="#ffffff" stroke="#cdeae0" stroke-width="1.4"/>
  <text x="480" y="348" text-anchor="middle" font-size="13" font-weight="700" fill="#333333">業務処理</text>
  <text x="480" y="367" text-anchor="middle" font-size="11" fill="#6b7280">{{処理}}</text>
  <rect x="380" y="400" width="200" height="54" rx="10" fill="#ffffff" stroke="#cdeae0" stroke-width="1.4"/>
  <text x="480" y="424" text-anchor="middle" font-size="13" font-weight="700" fill="#333333">DB更新</text>
  <text x="480" y="443" text-anchor="middle" font-size="11" fill="#6b7280">トランザクション</text>
  <rect x="390" y="470" width="180" height="42" rx="21.0" fill="#ffffff" stroke="#cdeae0" stroke-width="1.4"/>
  <text x="480" y="496" text-anchor="middle" font-size="13" font-weight="700" fill="#333333">応答</text>
  <rect x="680" y="220" width="200" height="54" rx="10" fill="#ffffff" stroke="#cdeae0" stroke-width="1.4"/>
  <text x="780" y="244" text-anchor="middle" font-size="13" font-weight="700" fill="#333333">エラー応答</text>
  <text x="780" y="263" text-anchor="middle" font-size="11" fill="#6b7280">HTTP 422</text>
  <line x1="480" y1="98" x2="480" y2="124" stroke="#00755c" stroke-width="2" marker-end="url(#af)"/>
  <line x1="480" y1="178" x2="480" y2="198" stroke="#00755c" stroke-width="2" marker-end="url(#af)"/>
  <line x1="480" y1="294" x2="480" y2="324" stroke="#00755c" stroke-width="2" marker-end="url(#af)"/>
  <rect x="468.8" y="300.5" width="22.3" height="17.0" rx="3" fill="#ffffff" opacity="0.95"/>
  <text x="480" y="312.9" text-anchor="middle" font-size="11" fill="#00755c">OK</text>
  <line x1="480" y1="378" x2="480" y2="400" stroke="#00755c" stroke-width="2" marker-end="url(#af)"/>
  <line x1="480" y1="454" x2="480" y2="470" stroke="#00755c" stroke-width="2" marker-end="url(#af)"/>
  <line x1="585" y1="246" x2="680" y2="247" stroke="#00755c" stroke-width="2" marker-end="url(#af)"/>
  <rect x="587.8" y="225.5" width="88.3" height="17.0" rx="3" fill="#ffffff" opacity="0.95"/>
  <text x="632" y="237.8" text-anchor="middle" font-size="11" fill="#6b7280">NG（検証失敗）</text>
</svg>