<svg xmlns="http://www.w3.org/2000/svg" viewBox="0 0 960 420" width="960" height="420" font-family="'Noto Sans JP',sans-serif">
  <defs>
    <marker id="af" markerUnits="userSpaceOnUse" markerWidth="11" markerHeight="8" refX="10" refY="4" orient="auto">
      <path d="M0,0 L10,4 L0,8 Z" fill="#00755c"/>
    </marker>
    <marker id="ax" markerUnits="userSpaceOnUse" markerWidth="11" markerHeight="8" refX="10" refY="4" orient="auto">
      <path d="M0,0 L10,4 L0,8 Z" fill="#9aa0a6"/>
    </marker>
  </defs>
  <rect x="0" y="0" width="960" height="420" fill="#ffffff"/>
  <text x="480" y="34" text-anchor="middle" font-size="16" font-weight="700" fill="#333333">画面遷移図（雛形）</text>
  <rect x="60" y="172" width="180" height="78" rx="10" fill="#ffffff" stroke="#cdeae0" stroke-width="1.4"/>
  <text x="150" y="216" text-anchor="middle" font-size="13" font-weight="700" fill="#333333">ログイン画面</text>
  <rect x="360" y="172" width="180" height="78" rx="10" fill="#ffffff" stroke="#cdeae0" stroke-width="1.4"/>
  <text x="450" y="216" text-anchor="middle" font-size="13" font-weight="700" fill="#333333">一覧画面</text>
  <rect x="700" y="80" width="200" height="78" rx="10" fill="#fafafa" stroke="#cdeae0" stroke-width="1.4" stroke-dasharray="5,4"/>
  <text x="800" y="124" text-anchor="middle" font-size="13" font-weight="700" fill="#333333">{{画面名}}</text>
  <rect x="700" y="262" width="200" height="78" rx="10" fill="#fafafa" stroke="#cdeae0" stroke-width="1.4" stroke-dasharray="5,4"/>
  <text x="800" y="306" text-anchor="middle" font-size="13" font-weight="700" fill="#333333">{{画面名}}</text>
  <line x1="240" y1="211" x2="360" y2="211" stroke="#00755c" stroke-width="2" marker-end="url(#af)"/>
  <rect x="262.0" y="190.5" width="76.0" height="17.0" rx="3" fill="#ffffff" opacity="0.95"/>
  <text x="300" y="202.8" text-anchor="middle" font-size="11" fill="#6b7280">ログイン成功</text>
  <line x1="540" y1="195" x2="700" y2="130" stroke="#00755c" stroke-width="2" stroke-dasharray="6,4" marker-end="url(#af)"/>
  <rect x="591.7" y="141.5" width="56.6" height="17.0" rx="3" fill="#ffffff" opacity="0.95"/>
  <text x="620" y="153.8" text-anchor="middle" font-size="11" fill="#6b7280">{{遷移}}</text>
  <line x1="540" y1="227" x2="700" y2="292" stroke="#00755c" stroke-width="2" stroke-dasharray="6,4" marker-end="url(#af)"/>
  <rect x="591.7" y="263.5" width="56.6" height="17.0" rx="3" fill="#ffffff" opacity="0.95"/>
  <text x="620" y="275.9" text-anchor="middle" font-size="11" fill="#6b7280">{{遷移}}</text>
  <path d="M 450,172 C 450,108 150,108 150,172" fill="none" stroke="#9aa0a6" stroke-width="2" stroke-dasharray="6,4" marker-end="url(#ax)"/>
  <rect x="196.0" y="95.5" width="208.0" height="17.0" rx="3" fill="#ffffff" opacity="0.95"/>
  <text x="300" y="107.8" text-anchor="middle" font-size="11" fill="#6b7280">未ログイン時はログインへリダイレクト</text>
</svg>