<svg xmlns="http://www.w3.org/2000/svg" viewBox="0 0 960 520" width="960" height="520" font-family="'Noto Sans JP',sans-serif">
  <defs>
    <marker id="af" markerUnits="userSpaceOnUse" markerWidth="11" markerHeight="8" refX="10" refY="4" orient="auto">
      <path d="M0,0 L10,4 L0,8 Z" fill="#00755c"/>
    </marker>
    <marker id="ax" markerUnits="userSpaceOnUse" markerWidth="11" markerHeight="8" refX="10" refY="4" orient="auto">
      <path d="M0,0 L10,4 L0,8 Z" fill="#9aa0a6"/>
    </marker>
  </defs>
  <rect x="0" y="0" width="960" height="520" fill="#ffffff"/>
  <text x="480" y="34" text-anchor="middle" font-size="16" font-weight="700" fill="#333333">シーケンス図（例：一覧画面の表示）</text>
  <rect x="48" y="58" width="124" height="42" rx="10" fill="#ffffff" stroke="#cdeae0" stroke-width="1.4"/>
  <text x="110" y="84" text-anchor="middle" font-size="13" font-weight="700" fill="#333333">ブラウザ</text>
  <line x1="110" y1="100" x2="110" y2="494" stroke="#e5e7eb" stroke-width="1.4" stroke-dasharray="4,4"/>
  <rect x="238" y="58" width="124" height="42" rx="10" fill="#ffffff" stroke="#cdeae0" stroke-width="1.4"/>
  <text x="300" y="84" text-anchor="middle" font-size="13" font-weight="700" fill="#333333">Router</text>
  <line x1="300" y1="100" x2="300" y2="494" stroke="#e5e7eb" stroke-width="1.4" stroke-dasharray="4,4"/>
  <rect x="438" y="58" width="124" height="42" rx="10" fill="#ffffff" stroke="#cdeae0" stroke-width="1.4"/>
  <text x="500" y="84" text-anchor="middle" font-size="13" font-weight="700" fill="#333333">Service</text>
  <line x1="500" y1="100" x2="500" y2="494" stroke="#e5e7eb" stroke-width="1.4" stroke-dasharray="4,4"/>
  <rect x="628" y="58" width="124" height="42" rx="10" fill="#ffffff" stroke="#cdeae0" stroke-width="1.4"/>
  <text x="690" y="84" text-anchor="middle" font-size="13" font-weight="700" fill="#333333">DB</text>
  <line x1="690" y1="100" x2="690" y2="494" stroke="#e5e7eb" stroke-width="1.4" stroke-dasharray="4,4"/>
  <rect x="808" y="58" width="124" height="42" rx="10" fill="#ffffff" stroke="#cdeae0" stroke-width="1.4"/>
  <text x="870" y="84" text-anchor="middle" font-size="13" font-weight="700" fill="#333333">Redis</text>
  <line x1="870" y1="100" x2="870" y2="494" stroke="#e5e7eb" stroke-width="1.4" stroke-dasharray="4,4"/>
  <rect x="295" y="150" width="10" height="298" fill="#e9f7f2" stroke="#00a984" stroke-width="1"/>
  <rect x="865" y="195" width="10" height="40" fill="#e9f7f2" stroke="#00a984" stroke-width="1"/>
  <rect x="495" y="280" width="10" height="124" fill="#e9f7f2" stroke="#00a984" stroke-width="1"/>
  <rect x="685" y="322" width="10" height="40" fill="#e9f7f2" stroke="#00a984" stroke-width="1"/>
  <line x1="113" y1="150" x2="295" y2="150" stroke="#00755c" stroke-width="2" marker-end="url(#af)"/>
  <rect x="138.3" y="131.5" width="131.4" height="17.0" rx="3" fill="#ffffff" opacity="0.95"/>
  <text x="204" y="143.8" text-anchor="middle" font-size="11" fill="#333333">画面要求（GET /list）</text>
  <line x1="305" y1="195" x2="865" y2="195" stroke="#00755c" stroke-width="2" marker-end="url(#af)"/>
  <rect x="541.5" y="176.5" width="87.0" height="17.0" rx="3" fill="#ffffff" opacity="0.95"/>
  <text x="585" y="188.8" text-anchor="middle" font-size="11" fill="#333333">セッション確認</text>
  <line x1="865" y1="235" x2="305" y2="235" stroke="#9aa0a6" stroke-width="2" stroke-dasharray="6,4" marker-end="url(#ax)"/>
  <rect x="541.5" y="216.5" width="87.0" height="17.0" rx="3" fill="#ffffff" opacity="0.95"/>
  <text x="585" y="228.8" text-anchor="middle" font-size="11" fill="#6b7280">セッション情報</text>
  <line x1="305" y1="280" x2="495" y2="280" stroke="#00755c" stroke-width="2" marker-end="url(#af)"/>
  <rect x="345.5" y="261.5" width="109.0" height="17.0" rx="3" fill="#ffffff" opacity="0.95"/>
  <text x="400" y="273.9" text-anchor="middle" font-size="11" fill="#333333">一覧取得を呼び出し</text>
  <line x1="505" y1="322" x2="685" y2="322" stroke="#00755c" stroke-width="2" marker-end="url(#af)"/>
  <rect x="533.0" y="303.5" width="124.0" height="17.0" rx="3" fill="#ffffff" opacity="0.95"/>
  <text x="595" y="315.9" text-anchor="middle" font-size="11" fill="#333333">SELECT（ページング）</text>
  <line x1="685" y1="362" x2="505" y2="362" stroke="#9aa0a6" stroke-width="2" stroke-dasharray="6,4" marker-end="url(#ax)"/>
  <rect x="562.5" y="343.5" width="65.0" height="17.0" rx="3" fill="#ffffff" opacity="0.95"/>
  <text x="595" y="355.9" text-anchor="middle" font-size="11" fill="#6b7280">結果セット</text>
  <line x1="495" y1="404" x2="305" y2="404" stroke="#9aa0a6" stroke-width="2" stroke-dasharray="6,4" marker-end="url(#ax)"/>
  <rect x="342.6" y="385.5" width="114.7" height="17.0" rx="3" fill="#ffffff" opacity="0.95"/>
  <text x="400" y="397.9" text-anchor="middle" font-size="11" fill="#6b7280">PaginatedResponse</text>
  <line x1="295" y1="448" x2="113" y2="448" stroke="#9aa0a6" stroke-width="2" stroke-dasharray="6,4" marker-end="url(#ax)"/>
  <rect x="152.4" y="429.5" width="103.3" height="17.0" rx="3" fill="#ffffff" opacity="0.95"/>
  <text x="204" y="441.9" text-anchor="middle" font-size="11" fill="#6b7280">SSR 応答（HTML）</text>
</svg>