<svg xmlns="http://www.w3.org/2000/svg" viewBox="0 0 960 400" width="960" height="400" font-family="'Noto Sans JP',sans-serif">
  <defs>
    <marker id="af" markerUnits="userSpaceOnUse" markerWidth="11" markerHeight="8" refX="10" refY="4" orient="auto">
      <path d="M0,0 L10,4 L0,8 Z" fill="#00755c"/>
    </marker>
    <marker id="ax" markerUnits="userSpaceOnUse" markerWidth="11" markerHeight="8" refX="10" refY="4" orient="auto">
      <path d="M0,0 L10,4 L0,8 Z" fill="#9aa0a6"/>
    </marker>
  </defs>
  <rect x="0" y="0" width="960" height="400" fill="#ffffff"/>
  <text x="480" y="34" text-anchor="middle" font-size="16" font-weight="700" fill="#333333">状態遷移図（例）</text>
  <circle cx="52" cy="150" r="9" fill="#00755c"/>
  <rect x="100" y="120" width="130" height="60" rx="10" fill="#ffffff" stroke="#cdeae0" stroke-width="1.4"/>
  <text x="165" y="155" text-anchor="middle" font-size="13" font-weight="700" fill="#333333">下書き</text>
  <rect x="320" y="120" width="130" height="60" rx="10" fill="#ffffff" stroke="#cdeae0" stroke-width="1.4"/>
  <text x="385" y="155" text-anchor="middle" font-size="13" font-weight="700" fill="#333333">申請中</text>
  <rect x="540" y="120" width="130" height="60" rx="10" fill="#ffffff" stroke="#cdeae0" stroke-width="1.4"/>
  <text x="605" y="155" text-anchor="middle" font-size="13" font-weight="700" fill="#333333">承認済み</text>
  <circle cx="770" cy="150" r="13" fill="none" stroke="#333333" stroke-width="1.6"/>
  <circle cx="770" cy="150" r="7" fill="#00755c"/>
  <rect x="320" y="268" width="130" height="60" rx="10" fill="#ffffff" stroke="#cdeae0" stroke-width="1.4"/>
  <text x="385" y="303" text-anchor="middle" font-size="13" font-weight="700" fill="#333333">差戻し</text>
  <line x1="61" y1="150" x2="100" y2="150" stroke="#00755c" stroke-width="2" marker-end="url(#af)"/>
  <line x1="230" y1="150" x2="320" y2="150" stroke="#00755c" stroke-width="2" marker-end="url(#af)"/>
  <rect x="238.8" y="129.5" width="72.5" height="17.0" rx="3" fill="#ffffff" opacity="0.95"/>
  <text x="275" y="141.8" text-anchor="middle" font-size="11" fill="#6b7280">申請 / 提出</text>
  <line x1="450" y1="150" x2="540" y2="150" stroke="#00755c" stroke-width="2" marker-end="url(#af)"/>
  <rect x="427.5" y="129.5" width="135.0" height="17.0" rx="3" fill="#ffffff" opacity="0.95"/>
  <text x="495" y="141.8" text-anchor="middle" font-size="11" fill="#6b7280">承認 [権限あり] / 確定</text>
  <line x1="670" y1="150" x2="757" y2="150" stroke="#00755c" stroke-width="2" marker-end="url(#af)"/>
  <rect x="696.0" y="129.5" width="32.0" height="17.0" rx="3" fill="#ffffff" opacity="0.95"/>
  <text x="712" y="141.8" text-anchor="middle" font-size="11" fill="#6b7280">完了</text>
  <line x1="385" y1="180" x2="385" y2="268" stroke="#00755c" stroke-width="2" marker-end="url(#af)"/>
  <rect x="312.0" y="215.5" width="146.0" height="17.0" rx="3" fill="#ffffff" opacity="0.95"/>
  <text x="385" y="227.8" text-anchor="middle" font-size="11" fill="#6b7280">差戻し [不備あり] / 記録</text>
  <path d="M 320,298 C 210,298 165,220 165,180" fill="none" stroke="#00755c" stroke-width="2" marker-end="url(#af)"/>
  <rect x="161.3" y="253.5" width="105.5" height="17.0" rx="3" fill="#ffffff" opacity="0.95"/>
  <text x="214" y="265.9" text-anchor="middle" font-size="11" fill="#6b7280">再編集 / 下書きへ</text>
  <rect x="100" y="345" width="570" height="31" rx="6" fill="#fafafa" stroke="#e5e7eb" stroke-width="1"/>
  <rect x="100" y="345" width="4" height="31" rx="2" fill="#00a984"/>
  <text x="116" y="365" font-size="11" fill="#6b7280">遷移ラベルは「イベント[条件]/アクション」形式</text>
</svg>